<?xml version="1.0" encoding="utf-8"?>
<!-- Generator: Adobe Illustrator 23.0.3, SVG Export Plug-In . SVG Version: 6.00 Build 0)  -->
<svg version="1.1" id="Capa_1" xmlns="http://www.w3.org/2000/svg" xmlns:xlink="http://www.w3.org/1999/xlink" x="0px" y="0px"
	 viewBox="0 0 284.9 284.9" style="enable-background:new 0 0 284.9 284.9;" xml:space="preserve">
<g>
	<path d="M208.4,282.1l14.3-14.3c1.9-1.9,2.9-4.1,2.9-6.6c0-2.5-0.9-4.7-2.9-6.6L110.5,142.5L222.7,30.3c1.9-1.9,2.9-4.1,2.9-6.6
		c0-2.5-0.9-4.7-2.9-6.6L208.4,2.9C206.5,1,204.3,0,201.8,0c-2.5,0-4.7,1-6.6,2.9l-133,133c-1.9,1.9-2.9,4.1-2.9,6.6s1,4.7,2.9,6.6
		l133,133.1c1.9,1.9,4.1,2.8,6.6,2.8C204.3,284.9,206.5,284,208.4,282.1z"/>
</g>
</svg>
