<?xml version="1.0" encoding="utf-8"?>
<!-- Generator: Adobe Illustrator 23.0.3, SVG Export Plug-In . SVG Version: 6.00 Build 0)  -->
<svg version="1.1" id="Capa_1" xmlns="http://www.w3.org/2000/svg" xmlns:xlink="http://www.w3.org/1999/xlink" x="0px" y="0px"
	 viewBox="0 0 284.9 284.9" style="enable-background:new 0 0 284.9 284.9;" xml:space="preserve">
<style type="text/css">
	.st0{fill:#FFFFFF;}
</style>
<g>
	<path class="st0" d="M76.5,2.8L62.2,17.1c-1.9,1.9-2.9,4.1-2.9,6.6s1,4.7,2.9,6.6l112.2,112.2L62.2,254.7c-1.9,1.9-2.9,4.1-2.9,6.6
		s1,4.7,2.9,6.6l14.3,14.3c1.9,1.9,4.1,2.9,6.6,2.9s4.7-1,6.6-2.9l133-133c1.9-1.9,2.9-4.1,2.9-6.6s-1-4.7-2.9-6.6L89.6,2.8
		c-1.9-1.9-4-2.8-6.5-2.8S78.4,0.9,76.5,2.8z"/>
</g>
</svg>
