<?xml version="1.0" standalone="no"?>
<!DOCTYPE svg PUBLIC "-//W3C//DTD SVG 20010904//EN"
 "http://www.w3.org/TR/2001/REC-SVG-20010904/DTD/svg10.dtd">
<svg version="1.0" xmlns="http://www.w3.org/2000/svg"
 width="601.000000pt" height="601.000000pt" viewBox="0 0 601.000000 601.000000"
 preserveAspectRatio="xMidYMid meet">
<metadata>
Created by potrace 1.11, written by Peter Selinger 2001-2013
</metadata>
<g transform="translate(0.000000,601.000000) scale(0.100000,-0.100000)"
fill="#000000" stroke="none">
<path d="M3187 5614 c-3 -3 -41 -8 -84 -10 -170 -8 -334 -35 -477 -79 -26 -8
-52 -12 -57 -9 -5 3 -9 1 -9 -4 0 -7 -40 -23 -90 -37 -3 -1 -18 -7 -35 -14
-16 -8 -39 -17 -50 -21 -11 -4 -67 -31 -125 -60 -58 -30 -115 -58 -127 -64
-13 -6 -23 -14 -23 -18 0 -5 -4 -8 -10 -8 -8 0 -86 -50 -117 -75 -6 -5 -28
-21 -48 -35 -83 -56 -253 -213 -310 -284 -16 -21 -39 -48 -50 -60 -12 -11 -30
-36 -40 -54 -11 -17 -22 -32 -26 -32 -4 0 -12 -13 -19 -30 -7 -16 -16 -30 -21
-30 -5 0 -9 -6 -9 -13 0 -7 -11 -29 -25 -48 -13 -20 -21 -39 -18 -43 4 -3 1
-6 -5 -6 -7 0 -12 -9 -12 -20 0 -11 -4 -20 -9 -20 -5 0 -13 -10 -17 -22 -4
-13 -17 -46 -30 -75 -13 -28 -24 -57 -24 -62 0 -6 -4 -11 -8 -11 -4 0 -14 -21
-21 -47 -8 -27 -15 -52 -17 -58 -10 -30 -46 -152 -49 -165 -2 -8 -4 -15 -5
-15 -2 0 -12 -65 -13 -82 0 -7 -3 -13 -7 -13 -3 0 -6 -8 -6 -17 -1 -21 -12
-107 -18 -143 -5 -29 -14 -110 -21 -190 -3 -30 -7 -77 -10 -105 -2 -27 -7 -85
-10 -127 -3 -43 -8 -86 -9 -95 -9 -45 -20 -129 -18 -135 1 -5 -3 -8 -9 -8 -5
0 -8 -4 -5 -9 3 -5 -3 -19 -13 -32 -19 -24 -19 -24 -41 -4 -63 57 -158 -11
-200 -145 -26 -80 -18 -380 15 -543 21 -105 17 -94 56 -185 36 -85 89 -132
150 -132 10 0 31 -12 48 -27 33 -31 114 -180 105 -194 -3 -5 0 -9 5 -9 6 0 11
-4 11 -9 0 -5 4 -20 9 -33 5 -13 9 -26 10 -30 1 -4 16 -38 32 -75 16 -38 34
-77 38 -88 30 -70 47 -104 72 -147 16 -26 26 -48 23 -48 -3 0 6 -15 20 -33 15
-19 26 -37 26 -40 0 -9 63 -101 74 -109 7 -5 7 -8 1 -8 -7 0 -7 -3 0 -8 9 -6
71 -81 100 -121 19 -26 162 -166 220 -216 32 -27 68 -59 80 -70 13 -11 33 -27
45 -35 13 -8 28 -21 36 -28 7 -6 17 -12 23 -12 6 0 16 -9 23 -20 7 -11 16 -20
21 -20 4 0 31 -16 60 -35 28 -19 57 -35 64 -35 7 0 13 -4 13 -10 0 -5 19 -19
43 -30 23 -11 74 -38 112 -60 209 -116 406 -199 515 -215 100 -16 211 -9 345
20 17 4 35 8 40 9 6 1 15 5 21 8 6 4 21 9 35 12 13 3 76 23 139 46 63 23 126
45 140 50 55 18 141 56 228 99 34 17 62 29 62 26 0 -2 9 3 20 13 12 9 23 15
27 14 3 -2 9 0 12 5 3 5 31 24 61 43 30 19 66 42 80 53 14 10 57 41 95 70 39
28 72 54 73 59 2 4 8 8 14 8 5 0 29 19 53 43 25 23 50 47 57 53 11 10 48 51
123 137 6 7 28 37 50 67 22 30 42 57 45 60 5 5 25 39 45 77 7 13 15 19 19 15
4 -4 6 -2 4 3 -3 12 70 167 84 176 5 3 8 10 7 15 -1 5 1 16 4 24 4 8 22 57 41
109 20 52 41 98 48 102 7 5 30 9 51 9 46 0 107 27 107 46 0 8 4 14 8 14 5 0
27 36 50 80 23 44 40 80 37 80 -2 0 3 16 11 35 8 19 14 37 14 40 0 3 6 29 15
59 9 29 17 62 20 72 2 11 13 61 25 113 41 186 45 310 10 383 -36 77 -69 96
-126 72 -50 -21 -58 -8 -51 88 7 87 23 214 33 254 3 13 21 33 40 44 39 25 54
66 47 136 -7 82 -12 95 -41 105 l-27 9 0 203 c-1 203 -13 346 -41 467 -9 36
-17 74 -20 85 -9 46 -13 62 -25 95 -7 19 -23 67 -36 105 -35 102 -113 257
-179 355 -31 47 -61 87 -65 88 -5 2 -9 7 -9 12 0 4 -12 22 -27 39 -37 42 -242
250 -274 276 -65 54 -189 145 -198 145 -5 0 -14 6 -18 13 -4 7 -33 25 -63 40
-30 16 -78 41 -105 55 -53 28 -124 61 -190 87 -22 9 -49 20 -60 24 -34 15
-111 41 -131 45 -11 3 -39 9 -64 15 -74 16 -100 21 -210 36 -58 8 -114 13
-125 11 -11 -2 -27 0 -36 5 -9 5 -19 6 -22 3z"/>
</g>
</svg>
